<?xml version="1.0" encoding="utf-8"?>
<!-- Generator: Adobe Illustrator 20.1.0, SVG Export Plug-In . SVG Version: 6.00 Build 0)  -->
<svg version="1.1"
	 id="svg8" inkscape:version="0.92.1 r15371" sodipodi:docname="Azurey.svg" xmlns:cc="http://creativecommons.org/ns#" xmlns:dc="http://purl.org/dc/elements/1.1/" xmlns:inkscape="http://www.inkscape.org/namespaces/inkscape" xmlns:rdf="http://www.w3.org/1999/02/22-rdf-syntax-ns#" xmlns:sodipodi="http://sodipodi.sourceforge.net/DTD/sodipodi-0.dtd" xmlns:svg="http://www.w3.org/2000/svg"
	 xmlns="http://www.w3.org/2000/svg" xmlns:xlink="http://www.w3.org/1999/xlink" x="0px" y="0px" width="64.8" height="64.8" viewBox="0 0 64.8 64.8"
	 style="enable-background:new 0 0 64.8 64.8;" xml:space="preserve">
<style type="text/css">
	.st0{fill:#0089D6;}
</style>
<sodipodi:namedview  bordercolor="#666666" borderopacity="1.0" fit-margin-bottom="0" fit-margin-left="0" fit-margin-right="0" fit-margin-top="0" id="base" inkscape:current-layer="layer1" inkscape:cx="67.4659" inkscape:cy="38.024323" inkscape:document-units="mm" inkscape:pagecheckerboard="true" inkscape:pageopacity="0.0" inkscape:pageshadow="2" inkscape:window-height="781" inkscape:window-maximized="0" inkscape:window-width="930" inkscape:window-x="667" inkscape:window-y="117" inkscape:zoom="6.5246067" pagecolor="#ffffff" showgrid="false">
	</sodipodi:namedview>
<g id="layer1" transform="translate(677.9313,-313.85407)" inkscape:groupmode="layer" inkscape:label="Layer 1">
	<g id="layer1-1" transform="matrix(0.03978217,0,0,0.03978217,-658.51488,317.36166)" inkscape:label="Layer 1">
		<path id="path21" inkscape:connector-curvature="0" class="st0" d="M274.3,940.1c180.2-31.8,329-58.2,330.7-58.5l3.1-0.7
			L438,678.6c-93.6-111.3-170.1-202.8-170.1-203.3c0-1,175.7-484.7,176.6-486.4c0.3-0.6,119.9,205.8,289.8,500.3
			c159.1,275.7,290.2,503,291.4,505.1l2.2,3.9L487.3,998l-540.6-0.1C-53.3,998,274.3,940.1,274.3,940.1z M370.5,1541
			c-51.6-3.3-81.6-32.7-89.5-87.6c-2.1-14.6-2.1-15-2.3-110l-0.2-91.9h22.8h22.8l0.2,88.9c0.2,80.1,0.3,89.5,1,95.2
			c3.1,22.9,9.3,38.2,19.8,49.3c8.5,8.8,18.3,14,32,16.7c6.5,1.3,24.8,1.3,30.7,0c13.9-3.1,25-9.1,34.7-18.9
			c11.2-11.2,19.4-27,23.4-44.9l1.3-6l0.1-89.7l0.1-89.7h23.3h23.3v140.9v140.9H491h-23.1v-22.4c0-15.2-0.2-22.3-0.5-22.2
			c-0.3,0.1-1.4,1.9-2.6,4c-8,14.5-21.2,27.8-35.7,35.7C411.8,1539.1,394.3,1542.5,370.5,1541L370.5,1541z M894.1,1540.7
			c-18.2-1.4-37.4-7.6-53-17.3c-33-20.4-52.6-54.1-58.3-100.5c-2-16-2.2-37.6-0.6-51.2c3.7-30.5,15.7-60.4,32.7-81.7
			c4.4-5.5,14.3-15.4,19.7-19.7c14.8-11.8,32-20.1,50.4-24.1c10.7-2.3,29.5-3.4,40.9-2.4c28.5,2.6,54.7,16,72.5,37.2
			c18.1,21.5,28,51.5,29.3,88.5c0.2,5.8,0.3,15.9,0.1,22.6l-0.3,12l-99.9,0.1l-99.9,0.1v4.5c0,13.6,3.3,29,9,42.2
			c4.9,11.3,13.4,23.8,20.3,29.7c14.2,12.3,31.6,19.6,50.7,21.4c7.1,0.6,25.1-0.1,33.1-1.3c22.9-3.5,44.8-12.5,62.4-25.8
			c2.1-1.6,4.1-3,4.4-3.2c0.5-0.3,0.6,3.8,0.6,20.8v21.2l-4.7,2.9c-19.9,12.4-42.8,20.2-67,23.2
			C929.2,1541,902.8,1541.4,894.1,1540.7L894.1,1540.7z M981.1,1361.8c0-22.8-9.6-48-23.1-61c-9.7-9.3-21.4-15-35.3-17.1
			c-6.6-1-20.4-0.6-27.4,0.8c-14.7,2.9-26.8,9.4-37.4,19.9c-11.2,11-19.5,24.4-24.8,39.6c-1.9,5.5-4.1,14.5-4.8,19.4l-0.3,2.4h76.5
			H981L981.1,1361.8L981.1,1361.8z M-374.5,1533.7c0.1-0.3,34-89.5,75.4-198.1l75.2-197.5h24.1h24.1l2,5.1
			c6.1,15.7,150.5,390.6,150.5,390.8c0,0.1-11.6,0.3-25.7,0.3h-25.7l-20.8-55.4l-20.8-55.4h-83.8h-83.8l-0.8,1.9
			c-0.4,1-9.3,26-19.7,55.4l-19.1,53.5h-25.8C-369.3,1534.3-374.6,1534.1-374.5,1533.7L-374.5,1533.7z M-131.3,1381.2
			c0-0.1-14-38.1-31.1-84.4c-32-86.6-33.8-91.9-36.4-105.8c-1.2-6.5-1.8-6.7-2.5-0.8c-0.5,4.3-2.7,13.8-4.4,19.1
			c-0.8,2.6-15.2,42.2-32,88c-16.8,45.8-30.5,83.4-30.5,83.6c0,0.3,30.8,0.4,68.5,0.4S-131.3,1381.2-131.3,1381.2z M-7.5,1527.1
			v-7.2l83.5-114.8l83.5-114.8L84,1290l-75.6-0.3l-0.1-19.2l-0.1-19.2h109.3h109.3v6.5v6.5l-83.5,115.4
			c-46,63.4-83.5,115.5-83.5,115.7c0,0.1,37.1,0.3,82.5,0.3h82.5v19.3v19.4H108.7H-7.5C-7.5,1534.3-7.5,1527.1-7.5,1527.1z
			 M605.3,1533.9c-0.2-0.2-0.3-63.8-0.3-141.4v-141.1h22.8h22.8v29.1c0,16,0.2,29.1,0.4,29.1c0.3,0,1.4-2.6,2.4-5.8
			c5.1-14.7,14-28.4,25.5-39.2c10.3-9.8,22.1-15.7,36-17.9c3.9-0.6,7.2-0.8,15-0.6c9.8,0.3,15,1,20.9,2.9l1.9,0.6v23.7v23.7
			l-5.4-2.7c-9.5-4.8-18.9-6.6-30.2-6.1c-7.3,0.4-12.2,1.3-18.1,3.5c-12.1,4.5-21.9,12.5-28.8,23.5c-9.9,15.9-17,36.2-19.1,54.9
			c-0.4,3.4-0.6,30.7-0.7,84.6l-0.1,79.6h-22.5C615.7,1534.3,605.5,1534.1,605.3,1533.9z M-374.5,878.4
			c0-0.3,80.2-139.4,178.1-309.2l178.1-308.7L189.3,86.3C303.5-9.5,397.2-88,397.6-88.2c0.4-0.1-1.1,3.6-3.3,8.4
			c-2.2,4.8-103.7,222.4-225.4,483.5L-52.5,878.5l-161,0.2C-302,878.8-374.5,878.7-374.5,878.4z"/>
	</g>
</g>
</svg>
