<?xml version="1.0" encoding="utf-8"?>
<!-- Generator: Adobe Illustrator 20.1.0, SVG Export Plug-In . SVG Version: 6.00 Build 0)  -->
<svg version="1.1" id="Слой_1" xmlns="http://www.w3.org/2000/svg" xmlns:xlink="http://www.w3.org/1999/xlink" x="0px" y="0px"
	 width="134.5" height="128.2" viewBox="0 0 134.5 128.2" style="enable-background:new 0 0 134.5 128.2;" xml:space="preserve">
<style type="text/css">
	.st0{fill:#EA4335;}
	.st1{fill:#34A853;}
	.st2{fill:#FBBC05;}
	.st3{fill:#5F6368;}
	.st4{fill:#4285F4;}
</style>
<path class="st0" d="M80.8,22h3l8.7-8.7L93,9.7C76.8-4.6,52.2-3.1,37.9,13.1c-4,4.5-6.8,9.8-8.4,15.6c1-0.4,2-0.5,3-0.2l17.4-2.9
	c0,0,0.9-1.5,1.3-1.4C59,15.8,72,14.8,80.8,22L80.8,22z"/>
<path class="st1" d="M45.5,80.1h21.7V62.8H45.5c-1.5,0-3.1-0.3-4.5-1l-3,0.9l-8.7,8.7l-0.8,3C33.4,78.2,39.4,80.1,45.5,80.1z"/>
<path class="st2" d="M45.5,23.8c-15.6,0.1-28.1,12.8-28,28.4c0.1,8.7,4.1,16.9,11,22.2L41,61.8c-5.5-2.5-7.9-8.9-5.4-14.3
	C38.1,42,44.5,39.6,50,42c2.4,1.1,4.3,3,5.4,5.4L68,34.9C62.6,27.9,54.3,23.8,45.5,23.8z"/>
<path class="st3" d="M9.4,122.7c-2.5,0-4.9-0.9-6.6-2.7C1,118.3,0,116,0,113.5s1-4.8,2.8-6.5c1.7-1.8,4.1-2.8,6.6-2.8
	c2.4,0,4.6,0.9,6.3,2.6l-1.8,1.8c-1.2-1.2-2.9-1.8-4.5-1.8c-1.8,0-3.5,0.7-4.7,2c-1.3,1.3-2,3-1.9,4.8c0,1.8,0.7,3.5,1.9,4.7
	c2.6,2.6,6.7,2.6,9.4,0.1c0.8-0.9,1.3-2,1.4-3.1h-6v-2.6H18c0.1,0.5,0.1,1,0.1,1.6c0.1,2.2-0.7,4.3-2.2,5.9
	C14.1,121.9,11.8,122.8,9.4,122.7z M29.1,121c-2.4,2.3-6.1,2.3-8.5,0c-1.1-1.1-1.8-2.7-1.7-4.3c0-1.6,0.6-3.1,1.7-4.3
	c2.4-2.3,6.1-2.3,8.5,0c1.1,1.1,1.8,2.7,1.7,4.3C30.9,118.4,30.3,119.9,29.1,121L29.1,121z M22.5,119.3c1.2,1.3,3.3,1.4,4.6,0.2
	c0.1,0,0.1-0.1,0.2-0.2c0.7-0.7,1-1.6,1-2.6s-0.3-1.9-1-2.6c-1.3-1.3-3.3-1.4-4.7-0.1l-0.1,0.1c-0.7,0.7-1,1.6-1,2.6
	C21.5,117.7,21.8,118.7,22.5,119.3L22.5,119.3z M42.1,121c-2.4,2.3-6.1,2.3-8.5,0c-1.1-1.1-1.8-2.7-1.7-4.3c0-1.6,0.6-3.1,1.7-4.3
	c2.4-2.3,6.1-2.3,8.5,0c1.1,1.1,1.8,2.7,1.7,4.3C43.9,118.4,43.3,119.9,42.1,121z M35.5,119.3c1.2,1.3,3.3,1.4,4.6,0.2
	c0.1,0,0.1-0.1,0.2-0.2c0.7-0.7,1-1.6,1-2.6s-0.3-1.9-1-2.6c-1.3-1.3-3.3-1.4-4.7-0.1l-0.1,0.1c-0.7,0.7-1,1.6-1,2.6
	C34.5,117.7,34.8,118.7,35.5,119.3L35.5,119.3z M50.7,128.1c-1.2,0-2.4-0.3-3.3-1.1c-0.8-0.6-1.5-1.5-1.9-2.5l2.3-1
	c0.2,0.6,0.6,1.1,1.1,1.5s1.2,0.6,1.9,0.6c0.9,0.1,1.7-0.3,2.3-0.9c0.6-0.7,0.9-1.7,0.8-2.6v-0.9h-0.1c-0.8,0.9-1.9,1.4-3.1,1.3
	c-1.5,0-3-0.6-4-1.7c-1.1-1.1-1.7-2.6-1.7-4.2s0.6-3.1,1.7-4.2c1-1.1,2.5-1.8,4-1.8c0.6,0,1.3,0.1,1.8,0.4c0.5,0.2,0.9,0.5,1.3,1
	h0.1v-1h2.5v10.7c0.1,1.7-0.4,3.4-1.6,4.7C53.7,127.6,52.2,128.1,50.7,128.1z M50.9,120.4c0.9,0,1.7-0.3,2.3-1s0.9-1.6,0.9-2.6
	s-0.3-1.9-0.9-2.6c-0.6-0.7-1.4-1-2.3-1c-0.9,0-1.7,0.3-2.3,1c-0.7,0.7-1,1.6-1,2.6s0.3,1.9,1,2.6C49.1,120,50,120.4,50.9,120.4z
	 M60.8,104.9v17.5h-2.6v-17.5H60.8z M67.9,122.7c-1.6,0-3.1-0.6-4.2-1.7c-1.1-1.1-1.7-2.7-1.7-4.2c-0.1-1.6,0.5-3.1,1.6-4.3
	c1-1.1,2.5-1.7,4-1.7c0.7,0,1.4,0.1,2,0.4c0.6,0.2,1.1,0.6,1.5,1s0.7,0.8,1,1.2c0.2,0.4,0.4,0.8,0.6,1.2l0.3,0.7l-8,3.3
	c0.5,1.1,1.6,1.9,2.9,1.8c1.2,0,2.3-0.6,2.9-1.7l2,1.3c-0.5,0.7-1.2,1.3-1.9,1.8C70,122.4,69,122.7,67.9,122.7z M64.6,116.6l5.3-2.2
	c-0.2-0.4-0.5-0.7-0.8-0.9c-0.4-0.2-0.9-0.4-1.4-0.3c-0.8,0-1.6,0.4-2.2,0.9C64.9,114.7,64.5,115.6,64.6,116.6z"/>
<path class="st3" d="M86.7,122.7c-4.6,0.1-8.3-3.5-8.4-8.1c0-0.1,0-0.2,0-0.3c-0.1-4.5,3.5-8.3,8-8.4c0.1,0,0.2,0,0.3,0
	c2.3-0.1,4.5,0.9,5.9,2.6l-1.4,1.4c-1.1-1.4-2.7-2.1-4.5-2.1c-1.7,0-3.3,0.6-4.4,1.8c-1.2,1.2-1.9,2.9-1.8,4.7
	c-0.1,1.7,0.6,3.4,1.8,4.7c1.2,1.2,2.8,1.8,4.4,1.8c1.9,0,3.8-0.8,5-2.3l1.4,1.4c-0.8,0.9-1.7,1.6-2.8,2.1
	C89.2,122.5,88,122.7,86.7,122.7z"/>
<path class="st3" d="M97,122.4h-2v-16.2h2V122.4z"/>
<path class="st3" d="M100.4,112.6c2.3-2.2,5.9-2.2,8.2,0c1.1,1.1,1.6,2.6,1.6,4.2s-0.5,3.1-1.6,4.2c-2.3,2.2-5.9,2.2-8.2,0
	c-1.1-1.1-1.6-2.6-1.6-4.2C98.8,115.3,99.3,113.8,100.4,112.6z M102,119.7c1.3,1.4,3.5,1.5,4.9,0.1l0.1-0.1c0.7-0.8,1.1-1.8,1.1-2.9
	s-0.3-2.1-1.1-2.9c-1.3-1.4-3.5-1.5-4.9-0.1l-0.1,0.1c-0.7,0.8-1.1,1.8-1.1,2.9C100.8,117.9,101.2,118.9,102,119.7L102,119.7z"/>
<path class="st3" d="M121.6,122.4h-2v-1.5h-0.1c-0.4,0.6-0.9,1.1-1.5,1.4c-0.6,0.4-1.3,0.6-2.1,0.6c-1.2,0.1-2.3-0.4-3.1-1.3
	c-0.8-1-1.1-2.2-1.1-3.4v-6.8h2.1v6.4c0,2.1,0.9,3.1,2.7,3.1c0.8,0,1.6-0.3,2.1-1s0.8-1.5,0.8-2.4v-6.1h2.1L121.6,122.4L121.6,122.4
	z"/>
<path class="st3" d="M128.7,122.7c-1.4,0-2.8-0.6-3.7-1.7c-1-1.1-1.6-2.6-1.6-4.2c0-1.5,0.5-3,1.6-4.2c0.9-1.1,2.3-1.7,3.7-1.7
	c0.8,0,1.6,0.2,2.3,0.5c0.6,0.3,1.1,0.8,1.5,1.3h0.1l-0.1-1.5v-5.1h2.1v16.2h-2v-1.5h-0.1c-0.4,0.6-0.9,1-1.5,1.3
	C130.2,122.5,129.5,122.7,128.7,122.7z M129,120.8c0.9,0,1.9-0.4,2.5-1.1c0.7-0.8,1.1-1.8,1-2.9c0.1-1.1-0.3-2.1-1-2.9
	c-1.3-1.4-3.4-1.5-4.8-0.2c-0.1,0.1-0.2,0.1-0.2,0.2c-0.7,0.8-1.1,1.8-1,2.9c-0.1,1.1,0.3,2.1,1,2.9
	C127.1,120.4,128.1,120.8,129,120.8z"/>
<path class="st4" d="M104.8,28.8c-2-7.3-6.1-14-11.9-19.1L80.7,21.9c5.1,4.2,8.1,10.5,7.9,17.3v2.2c6,0,10.8,4.9,10.8,10.8
	c0,5.1-3.6,9.4-8.3,10.5h-24v0.3h0v17h27.1c13.1-2.4,23-13.8,23.1-27.6C117.4,42.9,112.7,34.1,104.8,28.8z"/>
</svg>
